<svg width="69px" height="83px" viewBox="0 0 69 83" version="1.1" xmlns="http://www.w3.org/2000/svg" xmlns:xlink="http://www.w3.org/1999/xlink">
    <g id="Page-1" stroke="none" stroke-width="1" fill="none" fill-rule="evenodd">
        <g id="arrow.clockwise" transform="translate(-1415.000000, -615.000000)" fill="#000000" fill-rule="nonzero">
            <g id="Symbols" transform="translate(527.172940, 611.771500)">
                <g id="Regular-S" transform="translate(888.593000, 3.320300)">
                    <path d="M-8.8817842e-16,48.4863 C-8.8817842e-16,53.2389 0.878906667,57.6741333 2.63672,61.792 C4.39454667,65.9098 6.83596,69.5312167 9.96096,72.65625 C13.08596,75.78125 16.70736,78.2307933 20.82516,80.00488 C24.9430267,81.7789667 29.3619933,82.66601 34.08206,82.66601 C38.80206,82.66601 43.2209933,81.7789667 47.33886,80.00488 C51.4567267,78.2307933 55.07816,75.78125 58.20316,72.65625 C61.32816,69.5312167 63.76956,65.9098 65.52736,61.792 C67.28516,57.6741333 68.16406,53.2389 68.16406,48.4863 C68.16406,47.4446333 67.82226,46.582 67.13866,45.8984 C66.45506,45.2148 65.57616,44.873 64.50196,44.873 C63.4928267,44.873 62.6790267,45.2148 62.06056,45.8984 C61.4420933,46.582 61.13286,47.4446333 61.13286,48.4863 C61.13286,52.2623667 60.43296,55.7861333 59.03316,59.0576 C57.6334267,62.3290667 55.6965933,65.2018 53.22266,67.6758 C50.7487267,70.1497467 47.8759933,72.0865867 44.60446,73.48632 C41.3329933,74.88606 37.8255267,75.58593 34.08206,75.58593 C30.3385267,75.58593 26.8310267,74.88606 23.55956,73.48632 C20.2880933,72.0865867 17.41536,70.1497467 14.94136,67.6758 C12.4674267,65.2018 10.5305933,62.3290667 9.13086,59.0576 C7.73112667,55.7861333 7.03126,52.2623667 7.03126,48.4863 C7.03126,44.7428333 7.73112667,41.2353667 9.13086,37.9639 C10.5305933,34.6923667 12.4674267,31.8196333 14.94136,29.3457 C17.41536,26.8717667 20.2880933,24.9349333 23.55956,23.5352 C26.8310267,22.1354 30.3385267,21.4355 34.08206,21.4355 C35.3515933,21.4355 36.56416,21.4762 37.71976,21.5576 C38.87536,21.639 39.9576933,21.7936333 40.96676,22.0215 L30.66406,32.1777 C30.3059933,32.5357667 30.0455933,32.9182667 29.88286,33.3252 C29.72006,33.7320667 29.63866,34.1633667 29.63866,34.6191 C29.63866,35.6282333 29.9723267,36.4664667 30.63966,37.1338 C31.3069933,37.8011333 32.1289267,38.1348 33.10546,38.1348 C34.17966,38.1348 35.0097267,37.8092667 35.59566,37.1582 L51.07426,21.7285 C51.72526,21.0449 52.05076,20.1985333 52.05076,19.1894 C52.05076,18.2128667 51.72526,17.3828 51.07426,16.6992 L35.59566,1.0742 C34.9771933,0.358066667 34.13086,0 33.05666,0 C32.11266,0 31.3069933,0.349933333 30.63966,1.0498 C29.9723267,1.74966667 29.63866,2.60416667 29.63866,3.6133 C29.63866,4.06903333 29.72006,4.50846667 29.88286,4.9316 C30.0455933,5.3548 30.2897267,5.74543333 30.61526,6.1035 L39.55076,14.8926 C38.6718933,14.7298 37.7767267,14.6077333 36.86526,14.5264 C35.9537933,14.445 35.02606,14.4043 34.08206,14.4043 C29.3619933,14.4043 24.9430267,15.2832 20.82516,17.041 C16.70736,18.7988 13.08596,21.2402 9.96096,24.3652 C6.83596,27.4902 4.39454667,31.1116333 2.63672,35.2295 C0.878906667,39.3473 -8.8817842e-16,43.7662333 -8.8817842e-16,48.4863 Z" id="Path"></path>
                </g>
            </g>
        </g>
    </g>
</svg>
